<svg xmlns="http://www.w3.org/2000/svg" xmlns:xlink="http://www.w3.org/1999/xlink" viewBox="0 0 32 32">
    <defs>
        <path id="a" d="M6.958 5.01c-.492 0-.966.237-1.335.668-.835.973-.83 2.649.01 3.66L10 14.462l4.375-5.13c.828-.981.826-2.662-.006-3.667-.352-.424-.804-.66-1.268-.664-.492 0-.962.24-1.337.677L10.02 7.745 8.273 5.67c-.358-.425-.823-.66-1.308-.661h-.007zM10 16.002l-5.134-6.02C3.712 8.59 3.712 6.369 4.863 5.028 5.426 4.37 6.169 4.01 6.958 4.01h.009c.785.003 1.519.364 2.07 1.017l.984 1.167.983-1.165c.57-.665 1.309-1.03 2.085-1.03.786.008 1.507.372 2.05 1.028 1.14 1.378 1.14 3.598 0 4.95L10 16.003z"/>
    </defs>
    <g fill="none" fill-rule="evenodd">
        <rect width="31" height="31" x=".5" y=".5" fill="#ECF4FA" stroke="#A9CCE9" rx="3"/>
        <path fill="#BED6E9" d="M11.911 10.813c-.985.955-1.314 2.026-.985 3.213.328 1.188 1.998 3.657 5.01 7.408 3.072-2.8 4.882-4.894 5.43-6.284.82-2.086-.268-3.905-1.235-4.337-.967-.432-1.46-.74-2.827.505-.912.83-1.368 1.403-1.368 1.72-.631-1.094-1.248-1.836-1.85-2.225-.6-.39-1.326-.39-2.175 0z"/>
        <g transform="translate(6 6)">
            <mask id="b" fill="#fff">
                <use xlink:href="#a"/>
            </mask>
            <use fill="#000" xlink:href="#a"/>
            <g fill="#4491CE" mask="url(#b)">
                <path d="M0 0h20v20H0z"/>
            </g>
        </g>
    </g>
</svg>
