<svg xmlns="http://www.w3.org/2000/svg" xmlns:xlink="http://www.w3.org/1999/xlink" viewBox="0 0 20 20">
    <g>
        <path id="a" d="M6.958 5.01c-.492 0-.966.237-1.335.668-.835.973-.83 2.649.01 3.66L10 14.462l4.375-5.13c.828-.981.826-2.662-.006-3.667-.352-.424-.804-.66-1.268-.664-.492 0-.962.24-1.337.677L10.02 7.745 8.273 5.67c-.358-.425-.823-.66-1.308-.661h-.007zM10 16.002l-5.134-6.02C3.712 8.59 3.712 6.369 4.863 5.028 5.426 4.37 6.169 4.01 6.958 4.01h.009c.785.003 1.519.364 2.07 1.017l.984 1.167.983-1.165c.57-.665 1.309-1.03 2.085-1.03.786.008 1.507.372 2.05 1.028 1.14 1.378 1.14 3.598 0 4.95L10 16.003z"/>
    </g>
</svg>
