<svg width="100%" height="100%" viewBox="0 0 24 24" version="1.1" xmlns="http://www.w3.org/2000/svg" xmlns:xlink="http://www.w3.org/1999/xlink" xml:space="preserve" style="fill-rule:evenodd;clip-rule:evenodd;stroke-linejoin:round;stroke-miterlimit:1.41421;"><g id="Export"><path d="M11.11,22.571c-2.76,2.109 -6.654,1.87 -9.133,-0.56c-2.463,-2.419 -2.592,-6.905 -0.569,-9.007l11.58,-11.504c2.036,-2 5.305,-2 7.341,0c0.972,0.955 1.52,2.259 1.52,3.62c0,1.361 -0.548,2.665 -1.52,3.62l-11.012,10.858c-1.357,1.333 -3.536,1.333 -4.893,0c-0.648,-0.637 -1.014,-1.507 -1.014,-2.414c0,-0.908 0.366,-1.778 1.014,-2.414l9.788,-9.652l1.224,1.2l-9.788,9.653c-0.324,0.318 -0.507,0.753 -0.507,1.207c0,0.453 0.183,0.888 0.507,1.206c0.679,0.666 1.768,0.666 2.447,0l11.012,-10.858c0.648,-0.636 1.013,-1.506 1.013,-2.413c0,-0.907 -0.365,-1.777 -1.013,-2.413c-1.357,-1.333 -3.536,-1.333 -4.893,0l-11.012,10.858c-0.972,0.955 -1.52,2.259 -1.52,3.62c0,1.361 0.548,2.665 1.52,3.62c2.037,1.998 5.304,1.998 7.341,0l12.233,-12.065l1.224,1.2l-12.89,12.638Z"></path></g></svg>
