<?xml version="1.0" encoding="UTF-8" standalone="no"?><!DOCTYPE svg PUBLIC "-//W3C//DTD SVG 1.1//EN" "http://www.w3.org/Graphics/SVG/1.1/DTD/svg11.dtd"><svg width="100%" height="100%" viewBox="0 0 24 24" version="1.1" xmlns="http://www.w3.org/2000/svg" xmlns:xlink="http://www.w3.org/1999/xlink" xml:space="preserve" style="fill-rule:evenodd;clip-rule:evenodd;stroke-linejoin:round;stroke-miterlimit:1.41421;"><path d="M6.341,10.125l10.66,-6.046c0.019,0.719 0.291,1.376 0.731,1.884l-10.732,6.088c0,-0.017 0,-0.034 0,-0.051c0,-0.709 -0.247,-1.361 -0.659,-1.875Z"/><path d="M6.964,12.467l10.488,5.949c-0.286,0.46 -0.452,1.003 -0.452,1.584c0,0.164 0.013,0.324 0.038,0.481l-11.027,-6.255c0.498,-0.451 0.844,-1.066 0.953,-1.759Z"/><path d="M4.103,8.001c0.169,0.007 0.337,0.019 0.505,0.045c0.422,0.065 0.833,0.198 1.213,0.392c0.773,0.396 1.407,1.045 1.784,1.828c0.171,0.355 0.289,0.736 0.349,1.126c0.061,0.402 0.061,0.814 0,1.216c-0.06,0.39 -0.178,0.771 -0.349,1.126c-0.209,0.434 -0.497,0.829 -0.846,1.161c-0.349,0.333 -0.758,0.602 -1.202,0.79c-0.491,0.208 -1.023,0.315 -1.557,0.315c-0.534,0 -1.066,-0.107 -1.557,-0.315c-0.444,-0.188 -0.853,-0.457 -1.202,-0.79c-0.349,-0.332 -0.637,-0.727 -0.846,-1.161c-0.171,-0.355 -0.289,-0.736 -0.349,-1.126c-0.061,-0.402 -0.061,-0.814 0,-1.216c0.055,-0.358 0.159,-0.708 0.308,-1.038c0.372,-0.822 1.023,-1.505 1.825,-1.916c0.38,-0.194 0.791,-0.327 1.213,-0.392c0.168,-0.026 0.336,-0.038 0.505,-0.045c0.103,-0.001 0.103,-0.001 0.206,0Zm-0.155,2c-0.299,0.011 -0.59,0.081 -0.857,0.217c-0.535,0.275 -0.929,0.789 -1.05,1.378c-0.048,0.233 -0.054,0.475 -0.018,0.709c0.03,0.195 0.089,0.384 0.174,0.561c0.105,0.217 0.249,0.415 0.424,0.581c0.174,0.167 0.379,0.302 0.601,0.396c0.246,0.104 0.512,0.157 0.778,0.157c0.267,0 0.532,-0.053 0.778,-0.157c0.222,-0.094 0.427,-0.229 0.601,-0.396c0.175,-0.166 0.319,-0.364 0.424,-0.581c0.085,-0.177 0.144,-0.366 0.174,-0.561c0.036,-0.234 0.03,-0.476 -0.018,-0.709c-0.117,-0.573 -0.493,-1.076 -1.007,-1.355c-0.263,-0.143 -0.551,-0.219 -0.848,-0.238c-0.052,-0.002 -0.104,-0.003 -0.156,-0.002Z" style="fill-rule:nonzero;"/><path d="M20.103,0.001c0.169,0.007 0.337,0.019 0.505,0.045c0.422,0.065 0.833,0.198 1.213,0.392c0.802,0.411 1.453,1.094 1.825,1.916c0.149,0.33 0.253,0.68 0.308,1.038c0.061,0.402 0.061,0.814 0,1.216c-0.06,0.39 -0.178,0.771 -0.349,1.126c-0.209,0.434 -0.497,0.829 -0.846,1.161c-0.349,0.333 -0.758,0.602 -1.202,0.79c-0.491,0.208 -1.023,0.315 -1.557,0.315c-0.534,0 -1.066,-0.107 -1.557,-0.315c-0.444,-0.188 -0.853,-0.457 -1.202,-0.79c-0.349,-0.332 -0.637,-0.727 -0.846,-1.161c-0.171,-0.355 -0.289,-0.736 -0.349,-1.126c-0.061,-0.402 -0.061,-0.814 0,-1.216c0.06,-0.39 0.178,-0.771 0.349,-1.126c0.377,-0.783 1.011,-1.432 1.784,-1.828c0.38,-0.194 0.791,-0.327 1.213,-0.392c0.168,-0.026 0.336,-0.038 0.505,-0.045c0.103,-0.001 0.103,-0.001 0.206,0Zm-0.155,2c-0.299,0.011 -0.59,0.081 -0.857,0.217c-0.535,0.275 -0.93,0.789 -1.05,1.378c-0.048,0.233 -0.054,0.475 -0.018,0.709c0.03,0.195 0.089,0.384 0.174,0.561c0.105,0.217 0.249,0.415 0.424,0.581c0.174,0.167 0.379,0.302 0.601,0.396c0.246,0.104 0.512,0.157 0.778,0.157c0.266,0 0.532,-0.053 0.778,-0.157c0.222,-0.094 0.427,-0.229 0.601,-0.396c0.175,-0.166 0.319,-0.364 0.424,-0.581c0.085,-0.177 0.144,-0.366 0.174,-0.561c0.036,-0.234 0.03,-0.476 -0.018,-0.708c-0.117,-0.574 -0.493,-1.077 -1.007,-1.356c-0.263,-0.143 -0.551,-0.219 -0.848,-0.238c-0.052,-0.002 -0.104,-0.003 -0.156,-0.002Z" style="fill-rule:nonzero;"/><path d="M20.103,16.001c0.169,0.007 0.337,0.019 0.505,0.045c0.422,0.065 0.833,0.198 1.213,0.392c0.802,0.411 1.453,1.094 1.825,1.916c0.149,0.33 0.253,0.68 0.308,1.038c0.061,0.402 0.061,0.814 0,1.216c-0.06,0.39 -0.178,0.771 -0.349,1.126c-0.209,0.434 -0.497,0.829 -0.845,1.161c-0.35,0.333 -0.759,0.602 -1.203,0.79c-0.491,0.208 -1.023,0.315 -1.557,0.315c-0.534,0 -1.066,-0.107 -1.557,-0.315c-0.444,-0.188 -0.853,-0.457 -1.203,-0.79c-0.348,-0.332 -0.636,-0.727 -0.845,-1.161c-0.171,-0.355 -0.289,-0.736 -0.349,-1.126c-0.061,-0.402 -0.061,-0.814 0,-1.216c0.06,-0.39 0.178,-0.771 0.349,-1.126c0.377,-0.783 1.011,-1.432 1.784,-1.828c0.38,-0.194 0.791,-0.327 1.213,-0.392c0.168,-0.026 0.336,-0.038 0.505,-0.045c0.103,-0.001 0.103,-0.001 0.206,0Zm-0.155,2c-0.299,0.011 -0.59,0.081 -0.857,0.217c-0.52,0.267 -0.908,0.76 -1.04,1.33c-0.053,0.231 -0.065,0.472 -0.035,0.708c0.025,0.195 0.079,0.386 0.16,0.566c0.1,0.22 0.24,0.421 0.41,0.592c0.171,0.17 0.372,0.31 0.592,0.41c0.242,0.109 0.505,0.169 0.77,0.175c0.267,0.007 0.535,-0.039 0.784,-0.137c0.225,-0.089 0.433,-0.219 0.612,-0.382c0.178,-0.162 0.328,-0.356 0.438,-0.571c0.089,-0.174 0.152,-0.361 0.187,-0.554c0.039,-0.218 0.041,-0.442 0.008,-0.66c-0.091,-0.597 -0.461,-1.13 -0.983,-1.43c-0.258,-0.149 -0.543,-0.233 -0.839,-0.259c-0.069,-0.004 -0.138,-0.006 -0.207,-0.005Z" style="fill-rule:nonzero;"/></svg>