<?xml version="1.0" encoding="UTF-8" standalone="no"?><!DOCTYPE svg PUBLIC "-//W3C//DTD SVG 1.1//EN" "http://www.w3.org/Graphics/SVG/1.1/DTD/svg11.dtd"><svg width="100%" height="100%" viewBox="0 0 24 24" version="1.1" xmlns="http://www.w3.org/2000/svg" xmlns:xlink="http://www.w3.org/1999/xlink" xml:space="preserve" style="fill-rule:evenodd;clip-rule:evenodd;stroke-linejoin:round;stroke-miterlimit:1.41421;"><g id="Export"><path d="M11.743,18.949l1.434,0c0,0 0.433,-0.041 0.655,-0.25c0.203,-0.192 0.197,-0.553 0.197,-0.553c0,0 -0.029,-1.687 0.865,-1.935c0.881,-0.245 2.012,1.63 3.21,2.352c0.906,0.545 1.596,0.426 1.596,0.426l3.204,-0.04c0,0 1.677,-0.09 0.882,-1.245c-0.065,-0.095 -0.463,-0.855 -2.383,-2.417c-2.01,-1.635 -1.741,-1.37 0.68,-4.199c1.475,-1.722 2.064,-2.773 1.88,-3.223c-0.176,-0.43 -1.26,-0.316 -1.26,-0.316l-3.609,0.019c0,0 -0.267,-0.031 -0.466,0.072c-0.194,0.103 -0.319,0.341 -0.319,0.341c0,0 -0.571,1.332 -1.332,2.465c-1.607,2.392 -2.25,2.518 -2.512,2.37c-0.611,-0.347 -0.459,-1.39 -0.459,-2.132c0,-2.319 0.401,-3.285 -0.781,-3.535c-0.392,-0.083 -0.681,-0.138 -1.684,-0.146c-1.288,-0.012 -2.377,0.002 -2.995,0.267c-0.41,0.177 -0.727,0.569 -0.534,0.592c0.239,0.028 0.779,0.128 1.065,0.47c0.37,0.44 0.357,1.43 0.357,1.43c0,0 0.213,2.729 -0.496,3.067c-0.487,0.234 -1.154,-0.241 -2.587,-2.412c-0.733,-1.111 -1.288,-2.339 -1.288,-2.339c0,0 -0.106,-0.23 -0.297,-0.353c-0.232,-0.148 -0.555,-0.196 -0.555,-0.196l-3.429,0.02c0,0 -0.514,0.013 -0.703,0.209c-0.169,0.175 -0.014,0.536 -0.014,0.536c0,0 2.684,5.504 5.724,8.278c2.788,2.545 5.954,2.377 5.954,2.377Z"/></g><g id="Export1"><path d="M11.743,18.949l1.434,0c0,0 0.433,-0.041 0.655,-0.25c0.203,-0.192 0.197,-0.553 0.197,-0.553c0,0 -0.029,-1.687 0.865,-1.935c0.881,-0.245 2.012,1.63 3.21,2.352c0.906,0.545 1.596,0.426 1.596,0.426l3.204,-0.04c0,0 1.677,-0.09 0.882,-1.245c-0.065,-0.095 -0.463,-0.855 -2.383,-2.417c-2.01,-1.635 -1.741,-1.37 0.68,-4.199c1.475,-1.722 2.064,-2.773 1.88,-3.223c-0.176,-0.43 -1.26,-0.316 -1.26,-0.316l-3.609,0.019c0,0 -0.267,-0.031 -0.466,0.072c-0.194,0.103 -0.319,0.341 -0.319,0.341c0,0 -0.571,1.332 -1.332,2.465c-1.607,2.392 -2.25,2.518 -2.512,2.37c-0.611,-0.347 -0.459,-1.39 -0.459,-2.132c0,-2.319 0.401,-3.285 -0.781,-3.535c-0.392,-0.083 -0.681,-0.138 -1.684,-0.146c-1.288,-0.012 -2.377,0.002 -2.995,0.267c-0.41,0.177 -0.727,0.569 -0.534,0.592c0.239,0.028 0.779,0.128 1.065,0.47c0.37,0.44 0.357,1.43 0.357,1.43c0,0 0.213,2.729 -0.496,3.067c-0.487,0.234 -1.154,-0.241 -2.587,-2.412c-0.733,-1.111 -1.288,-2.339 -1.288,-2.339c0,0 -0.106,-0.23 -0.297,-0.353c-0.232,-0.148 -0.555,-0.196 -0.555,-0.196l-3.429,0.02c0,0 -0.514,0.013 -0.703,0.209c-0.169,0.175 -0.014,0.536 -0.014,0.536c0,0 2.684,5.504 5.724,8.278c2.788,2.545 5.954,2.377 5.954,2.377Z"/></g></svg>