<?xml version="1.0" encoding="UTF-8" standalone="no"?><!DOCTYPE svg PUBLIC "-//W3C//DTD SVG 1.1//EN" "http://www.w3.org/Graphics/SVG/1.1/DTD/svg11.dtd"><svg width="100%" height="100%" viewBox="0 0 24 24" version="1.1" xmlns="http://www.w3.org/2000/svg" xmlns:xlink="http://www.w3.org/1999/xlink" xml:space="preserve" style="fill-rule:evenodd;clip-rule:evenodd;stroke-linejoin:round;stroke-miterlimit:1.41421;"><g id="Export"><path d="M22,5.518c-0.736,0.324 -1.527,0.542 -2.357,0.641c0.847,-0.504 1.498,-1.301 1.804,-2.25c-0.792,0.466 -1.671,0.804 -2.605,0.986c-0.749,-0.79 -1.815,-1.284 -2.995,-1.284c-2.266,0 -4.103,1.821 -4.103,4.067c0,0.319 0.036,0.629 0.106,0.927c-3.41,-0.17 -6.434,-1.789 -8.458,-4.249c-0.353,0.6 -0.555,1.299 -0.555,2.044c0,1.411 0.724,2.656 1.825,3.386c-0.672,-0.021 -1.305,-0.204 -1.858,-0.509c-0.001,0.017 -0.001,0.034 -0.001,0.051c0,1.971 1.415,3.615 3.292,3.988c-0.344,0.093 -0.707,0.143 -1.081,0.143c-0.265,0 -0.522,-0.026 -0.772,-0.073c0.522,1.616 2.037,2.792 3.833,2.824c-1.404,1.091 -3.174,1.742 -5.096,1.742c-0.331,0 -0.658,-0.02 -0.979,-0.057c1.816,1.154 3.973,1.827 6.29,1.827c7.547,0 11.674,-6.197 11.674,-11.572c0,-0.176 -0.004,-0.352 -0.011,-0.526c0.801,-0.574 1.497,-1.29 2.047,-2.106Z"/></g><g id="Export1"><path d="M22,5.518c-0.736,0.324 -1.527,0.542 -2.357,0.641c0.847,-0.504 1.498,-1.301 1.804,-2.25c-0.792,0.466 -1.671,0.804 -2.605,0.986c-0.749,-0.79 -1.815,-1.284 -2.995,-1.284c-2.266,0 -4.103,1.821 -4.103,4.067c0,0.319 0.036,0.629 0.106,0.927c-3.41,-0.17 -6.434,-1.789 -8.458,-4.249c-0.353,0.6 -0.555,1.299 -0.555,2.044c0,1.411 0.724,2.656 1.825,3.386c-0.672,-0.021 -1.305,-0.204 -1.858,-0.509c-0.001,0.017 -0.001,0.034 -0.001,0.051c0,1.971 1.415,3.615 3.292,3.988c-0.344,0.093 -0.707,0.143 -1.081,0.143c-0.265,0 -0.522,-0.026 -0.772,-0.073c0.522,1.616 2.037,2.792 3.833,2.824c-1.404,1.091 -3.174,1.742 -5.096,1.742c-0.331,0 -0.658,-0.02 -0.979,-0.057c1.816,1.154 3.973,1.827 6.29,1.827c7.547,0 11.674,-6.197 11.674,-11.572c0,-0.176 -0.004,-0.352 -0.011,-0.526c0.801,-0.574 1.497,-1.29 2.047,-2.106Z"/></g></svg>