<?xml version="1.0" encoding="UTF-8" standalone="no"?><!DOCTYPE svg PUBLIC "-//W3C//DTD SVG 1.1//EN" "http://www.w3.org/Graphics/SVG/1.1/DTD/svg11.dtd"><svg width="100%" height="100%" viewBox="0 0 24 24" version="1.1" xmlns="http://www.w3.org/2000/svg" xmlns:xlink="http://www.w3.org/1999/xlink" xml:space="preserve" style="fill-rule:evenodd;clip-rule:evenodd;stroke-linejoin:round;stroke-miterlimit:1.41421;"><g id="Export"><path d="M16.217,14.461c-0.044,0.189 -0.067,0.383 -0.069,0.577c-0.006,0.155 0.032,0.308 0.11,0.442c0.078,0.119 0.215,0.185 0.357,0.174c0.415,-0.01 0.819,-0.135 1.167,-0.361c0.415,-0.263 0.771,-0.609 1.044,-1.018c0.323,-0.481 0.573,-1.008 0.742,-1.563c0.466,-1.587 0.364,-3.287 -0.289,-4.807c-0.37,-0.794 -0.909,-1.499 -1.579,-2.064c-0.695,-0.577 -1.498,-1.01 -2.363,-1.272c-0.947,-0.292 -1.934,-0.436 -2.925,-0.429c-1.096,-0.014 -2.184,0.19 -3.199,0.601c-1.875,0.758 -3.339,2.277 -4.024,4.178c-0.372,1.007 -0.559,2.073 -0.549,3.147c-0.016,1.096 0.189,2.184 0.603,3.199c0.384,0.928 0.954,1.766 1.676,2.464c0.737,0.701 1.61,1.243 2.566,1.592c1.042,0.383 2.144,0.574 3.254,0.563c1.12,0.006 2.232,-0.189 3.283,-0.575c0.979,-0.35 1.873,-0.902 2.623,-1.62l2.307,0c-0.899,1.362 -2.14,2.465 -3.598,3.199c-1.482,0.745 -3.12,1.126 -4.779,1.112c-1.408,0.01 -2.806,-0.245 -4.12,-0.751c-1.244,-0.476 -2.386,-1.185 -3.365,-2.089c-1.99,-1.843 -3.111,-4.438 -3.09,-7.149c-0.01,-1.36 0.271,-2.707 0.824,-3.95c0.532,-1.197 1.298,-2.276 2.253,-3.173c0.968,-0.903 2.095,-1.62 3.323,-2.115c1.282,-0.52 2.655,-0.783 4.038,-0.773c1.224,-0.003 2.44,0.196 3.598,0.589c1.105,0.366 2.137,0.924 3.05,1.646c0.875,0.702 1.595,1.577 2.114,2.571c0.538,1.038 0.812,2.192 0.797,3.361c0.034,1.221 -0.225,2.433 -0.755,3.534c-0.449,0.909 -1.065,1.726 -1.815,2.409c-0.631,0.577 -1.356,1.042 -2.143,1.376c-0.549,0.253 -1.14,0.403 -1.743,0.443c-0.507,0.025 -1.007,-0.127 -1.415,-0.429c-0.346,-0.264 -0.561,-0.664 -0.591,-1.098l-0.051,0c-0.304,0.512 -0.754,0.923 -1.292,1.179c-1.056,0.494 -2.277,0.499 -3.337,0.013c-0.518,-0.238 -0.984,-0.575 -1.373,-0.991c-0.398,-0.425 -0.714,-0.92 -0.934,-1.46c-0.23,-0.56 -0.347,-1.16 -0.343,-1.766c0.001,-0.848 0.145,-1.69 0.426,-2.491c0.27,-0.797 0.679,-1.54 1.209,-2.195c0.519,-0.641 1.164,-1.17 1.895,-1.554c0.758,-0.396 1.602,-0.598 2.457,-0.588c0.628,0.009 1.246,0.15 1.815,0.414c0.636,0.291 1.137,0.813 1.401,1.459l0.438,-1.446l2.253,0l-1.73,6.909c-0.057,0.18 -0.107,0.373 -0.152,0.576Zm-6.62,0.296c0.394,0.438 0.963,0.678 1.552,0.656c0.479,0.004 0.95,-0.126 1.359,-0.375c0.412,-0.249 0.775,-0.571 1.072,-0.95c0.602,-0.78 0.934,-1.734 0.947,-2.719c0.022,-0.605 -0.201,-1.193 -0.618,-1.632c-0.385,-0.418 -0.929,-0.652 -1.497,-0.644c-0.482,-0.003 -0.956,0.122 -1.373,0.363c-0.419,0.239 -0.788,0.557 -1.085,0.938c-0.301,0.383 -0.538,0.813 -0.7,1.272c-0.16,0.438 -0.244,0.9 -0.247,1.366c-0.03,0.629 0.181,1.246 0.59,1.726l0,-0.001Z"/></g><g id="Export1"><path d="M16.217,14.461c-0.044,0.189 -0.067,0.383 -0.069,0.577c-0.006,0.155 0.032,0.308 0.11,0.442c0.078,0.119 0.215,0.185 0.357,0.174c0.415,-0.01 0.819,-0.135 1.167,-0.361c0.415,-0.263 0.771,-0.609 1.044,-1.018c0.323,-0.481 0.573,-1.008 0.742,-1.563c0.466,-1.587 0.364,-3.287 -0.289,-4.807c-0.37,-0.794 -0.909,-1.499 -1.579,-2.064c-0.695,-0.577 -1.498,-1.01 -2.363,-1.272c-0.947,-0.292 -1.934,-0.436 -2.925,-0.429c-1.096,-0.014 -2.184,0.19 -3.199,0.601c-1.875,0.758 -3.339,2.277 -4.024,4.178c-0.372,1.007 -0.559,2.073 -0.549,3.147c-0.016,1.096 0.189,2.184 0.603,3.199c0.384,0.928 0.954,1.766 1.676,2.464c0.737,0.701 1.61,1.243 2.566,1.592c1.042,0.383 2.144,0.574 3.254,0.563c1.12,0.006 2.232,-0.189 3.283,-0.575c0.979,-0.35 1.873,-0.902 2.623,-1.62l2.307,0c-0.899,1.362 -2.14,2.465 -3.598,3.199c-1.482,0.745 -3.12,1.126 -4.779,1.112c-1.408,0.01 -2.806,-0.245 -4.12,-0.751c-1.244,-0.476 -2.386,-1.185 -3.365,-2.089c-1.99,-1.843 -3.111,-4.438 -3.09,-7.149c-0.01,-1.36 0.271,-2.707 0.824,-3.95c0.532,-1.197 1.298,-2.276 2.253,-3.173c0.968,-0.903 2.095,-1.62 3.323,-2.115c1.282,-0.52 2.655,-0.783 4.038,-0.773c1.224,-0.003 2.44,0.196 3.598,0.589c1.105,0.366 2.137,0.924 3.05,1.646c0.875,0.702 1.595,1.577 2.114,2.571c0.538,1.038 0.812,2.192 0.797,3.361c0.034,1.221 -0.225,2.433 -0.755,3.534c-0.449,0.909 -1.065,1.726 -1.815,2.409c-0.631,0.577 -1.356,1.042 -2.143,1.376c-0.549,0.253 -1.14,0.403 -1.743,0.443c-0.507,0.025 -1.007,-0.127 -1.415,-0.429c-0.346,-0.264 -0.561,-0.664 -0.591,-1.098l-0.051,0c-0.304,0.512 -0.754,0.923 -1.292,1.179c-1.056,0.494 -2.277,0.499 -3.337,0.013c-0.518,-0.238 -0.984,-0.575 -1.373,-0.991c-0.398,-0.425 -0.714,-0.92 -0.934,-1.46c-0.23,-0.56 -0.347,-1.16 -0.343,-1.766c0.001,-0.848 0.145,-1.69 0.426,-2.491c0.27,-0.797 0.679,-1.54 1.209,-2.195c0.519,-0.641 1.164,-1.17 1.895,-1.554c0.758,-0.396 1.602,-0.598 2.457,-0.588c0.628,0.009 1.246,0.15 1.815,0.414c0.636,0.291 1.137,0.813 1.401,1.459l0.438,-1.446l2.253,0l-1.73,6.909c-0.057,0.18 -0.107,0.373 -0.152,0.576Zm-6.62,0.296c0.394,0.438 0.963,0.678 1.552,0.656c0.479,0.004 0.95,-0.126 1.359,-0.375c0.412,-0.249 0.775,-0.571 1.072,-0.95c0.602,-0.78 0.934,-1.734 0.947,-2.719c0.022,-0.605 -0.201,-1.193 -0.618,-1.632c-0.385,-0.418 -0.929,-0.652 -1.497,-0.644c-0.482,-0.003 -0.956,0.122 -1.373,0.363c-0.419,0.239 -0.788,0.557 -1.085,0.938c-0.301,0.383 -0.538,0.813 -0.7,1.272c-0.16,0.438 -0.244,0.9 -0.247,1.366c-0.03,0.629 0.181,1.246 0.59,1.726l0,-0.001Z"/></g></svg>