<?xml version="1.0" encoding="UTF-8" standalone="no"?><!DOCTYPE svg PUBLIC "-//W3C//DTD SVG 1.1//EN" "http://www.w3.org/Graphics/SVG/1.1/DTD/svg11.dtd"><svg width="100%" height="100%" viewBox="0 0 24 24" version="1.1" xmlns="http://www.w3.org/2000/svg" xmlns:xlink="http://www.w3.org/1999/xlink" xml:space="preserve" style="fill-rule:evenodd;clip-rule:evenodd;stroke-linejoin:round;stroke-miterlimit:1.41421;"><g id="Export"><path d="M1.02,11.65c0.064,-3.606 3.6,-6.764 7.446,-6.644c1.842,-0.08 3.575,0.672 4.986,1.728c-0.602,0.641 -1.226,1.26 -1.893,1.838c-1.696,-1.1 -4.109,-1.414 -5.806,-0.144c-2.427,1.574 -2.537,5.291 -0.203,6.985c2.27,1.932 6.562,0.973 7.189,-1.985c-1.422,-0.02 -2.848,0 -4.27,-0.044c-0.003,-0.795 -0.007,-1.59 -0.003,-2.386c2.377,-0.006 4.754,-0.01 7.135,0.007c0.143,1.871 -0.121,3.863 -1.347,5.411c-1.857,2.449 -5.585,3.165 -8.494,2.115c-2.919,-1.043 -4.986,-3.933 -4.74,-6.881Zm18.997,-2.65l1.983,0c0.004,0.663 0.007,1.33 0.014,1.993c0.694,0.007 1.293,0.007 1.986,0.014l0,1.983c-0.693,0.007 -1.289,0.01 -1.986,0.017c-0.007,0.666 -0.01,1.33 -0.014,1.993l-1.986,0c-0.007,-0.663 -0.007,-1.327 -0.014,-1.99c-0.694,-0.007 -1.306,-0.013 -2,-0.02l0,-1.983c0.694,-0.007 1.303,-0.01 2,-0.014c0.004,-0.666 0.01,-1.33 0.017,-1.993Z"/></g><g id="Export1"><path d="M1.02,11.65c0.064,-3.606 3.6,-6.764 7.446,-6.644c1.842,-0.08 3.575,0.672 4.986,1.728c-0.602,0.641 -1.226,1.26 -1.893,1.838c-1.696,-1.1 -4.109,-1.414 -5.806,-0.144c-2.427,1.574 -2.537,5.291 -0.203,6.985c2.27,1.932 6.562,0.973 7.189,-1.985c-1.422,-0.02 -2.848,0 -4.27,-0.044c-0.003,-0.795 -0.007,-1.59 -0.003,-2.386c2.377,-0.006 4.754,-0.01 7.135,0.007c0.143,1.871 -0.121,3.863 -1.347,5.411c-1.857,2.449 -5.585,3.165 -8.494,2.115c-2.919,-1.043 -4.986,-3.933 -4.74,-6.881Zm18.997,-2.65l1.983,0c0.004,0.663 0.007,1.33 0.014,1.993c0.694,0.007 1.293,0.007 1.986,0.014l0,1.983c-0.693,0.007 -1.289,0.01 -1.986,0.017c-0.007,0.666 -0.01,1.33 -0.014,1.993l-1.986,0c-0.007,-0.663 -0.007,-1.327 -0.014,-1.99c-0.694,-0.007 -1.306,-0.013 -2,-0.02l0,-1.983c0.694,-0.007 1.303,-0.01 2,-0.014c0.004,-0.666 0.01,-1.33 0.017,-1.993Z"/></g></svg>