<?xml version="1.0" encoding="UTF-8" standalone="no"?><!DOCTYPE svg PUBLIC "-//W3C//DTD SVG 1.1//EN" "http://www.w3.org/Graphics/SVG/1.1/DTD/svg11.dtd"><svg width="100%" height="100%" viewBox="0 0 24 24" version="1.1" xmlns="http://www.w3.org/2000/svg" xmlns:xlink="http://www.w3.org/1999/xlink" xml:space="preserve" style="fill-rule:evenodd;clip-rule:evenodd;stroke-linejoin:round;stroke-miterlimit:1.41421;"><g id="Export"><path d="M7,7.945l2.065,0l0,-2.111c0,-0.929 0.023,-2.365 0.665,-3.254c0.677,-0.941 1.606,-1.58 3.205,-1.58c2.604,0 3.701,0.39 3.701,0.39l-0.516,3.217c0,0 -0.86,-0.261 -1.663,-0.261c-0.803,0 -1.522,0.301 -1.522,1.146l0,2.453l3.292,0l-0.229,3.055l-2.998,0l0,11l-4,0l0,-11l-2,0l0,-3.055Z"/></g><g id="Export1"><path d="M7,7.945l2.065,0l0,-2.111c0,-0.929 0.023,-2.365 0.665,-3.254c0.677,-0.941 1.606,-1.58 3.205,-1.58c2.604,0 3.701,0.39 3.701,0.39l-0.516,3.217c0,0 -0.86,-0.261 -1.663,-0.261c-0.803,0 -1.522,0.301 -1.522,1.146l0,2.453l3.292,0l-0.229,3.055l-2.998,0l0,11l-4,0l0,-11l-2,0l0,-3.055Z"/></g></svg>