<?xml version="1.0" encoding="UTF-8" standalone="no"?><!DOCTYPE svg PUBLIC "-//W3C//DTD SVG 1.1//EN" "http://www.w3.org/Graphics/SVG/1.1/DTD/svg11.dtd"><svg width="100%" height="100%" viewBox="0 0 24 24" version="1.1" xmlns="http://www.w3.org/2000/svg" xmlns:xlink="http://www.w3.org/1999/xlink" xml:space="preserve" style="fill-rule:evenodd;clip-rule:evenodd;stroke-linejoin:round;stroke-miterlimit:1.41421;"><g id="Export"><g><path d="M12.006,2.988c2.937,0 3.285,0.011 4.445,0.064c1.072,0.049 1.654,0.228 2.042,0.379c0.514,0.199 0.88,0.437 1.265,0.822c0.385,0.385 0.623,0.752 0.823,1.265c0.15,0.388 0.33,0.97 0.379,2.043c0.052,1.16 0.064,1.508 0.064,4.445c0,2.937 -0.012,3.285 -0.064,4.445c-0.049,1.072 -0.229,1.654 -0.379,2.042c-0.2,0.514 -0.438,0.88 -0.823,1.265c-0.385,0.385 -0.751,0.623 -1.265,0.823c-0.388,0.15 -0.97,0.33 -2.042,0.379c-1.16,0.052 -1.508,0.064 -4.445,0.064c-2.938,0 -3.286,-0.012 -4.445,-0.064c-1.073,-0.049 -1.655,-0.229 -2.043,-0.379c-0.513,-0.2 -0.88,-0.438 -1.265,-0.823c-0.385,-0.385 -0.623,-0.751 -0.822,-1.265c-0.151,-0.388 -0.33,-0.97 -0.379,-2.042c-0.053,-1.16 -0.064,-1.508 -0.064,-4.445c0,-2.937 0.011,-3.285 0.064,-4.445c0.049,-1.073 0.228,-1.655 0.379,-2.043c0.199,-0.513 0.437,-0.88 0.822,-1.265c0.385,-0.385 0.752,-0.623 1.265,-0.822c0.388,-0.151 0.97,-0.33 2.043,-0.379c1.16,-0.053 1.508,-0.064 4.445,-0.064Zm0,-1.982c-2.988,0 -3.362,0.012 -4.536,0.066c-1.17,0.053 -1.97,0.239 -2.67,0.511c-0.723,0.281 -1.337,0.657 -1.948,1.269c-0.612,0.611 -0.988,1.225 -1.269,1.948c-0.272,0.7 -0.458,1.5 -0.511,2.67c-0.054,1.174 -0.066,1.548 -0.066,4.536c0,2.987 0.012,3.362 0.066,4.535c0.053,1.171 0.239,1.97 0.511,2.67c0.281,0.723 0.657,1.337 1.269,1.948c0.611,0.612 1.225,0.988 1.948,1.269c0.7,0.272 1.5,0.458 2.67,0.511c1.174,0.054 1.548,0.067 4.536,0.067c2.987,0 3.362,-0.013 4.535,-0.067c1.171,-0.053 1.97,-0.239 2.67,-0.511c0.723,-0.281 1.337,-0.657 1.948,-1.269c0.612,-0.611 0.988,-1.225 1.269,-1.948c0.272,-0.7 0.458,-1.499 0.511,-2.67c0.054,-1.173 0.067,-1.548 0.067,-4.535c0,-2.988 -0.013,-3.362 -0.067,-4.536c-0.053,-1.17 -0.239,-1.97 -0.511,-2.67c-0.281,-0.723 -0.657,-1.337 -1.269,-1.948c-0.611,-0.612 -1.225,-0.988 -1.948,-1.269c-0.7,-0.272 -1.499,-0.458 -2.67,-0.511c-1.173,-0.054 -1.548,-0.066 -4.535,-0.066Z"/><path d="M12.006,6.357c-3.12,0 -5.649,2.529 -5.649,5.649c0,3.119 2.529,5.648 5.649,5.648c3.119,0 5.648,-2.529 5.648,-5.648c0,-3.12 -2.529,-5.649 -5.648,-5.649Zm0,9.315c-2.025,0 -3.667,-1.641 -3.667,-3.666c0,-2.025 1.642,-3.667 3.667,-3.667c2.025,0 3.666,1.642 3.666,3.667c0,2.025 -1.641,3.666 -3.666,3.666Z"/><path d="M19.197,6.134c0,0.729 -0.59,1.32 -1.32,1.32c-0.728,0 -1.32,-0.591 -1.32,-1.32c0,-0.729 0.592,-1.32 1.32,-1.32c0.73,0 1.32,0.591 1.32,1.32Z"/></g></g><g id="Export1"><g><path d="M12.006,2.988c2.937,0 3.285,0.011 4.445,0.064c1.072,0.049 1.654,0.228 2.042,0.379c0.514,0.199 0.88,0.437 1.265,0.822c0.385,0.385 0.623,0.752 0.823,1.265c0.15,0.388 0.33,0.97 0.379,2.043c0.052,1.16 0.064,1.508 0.064,4.445c0,2.937 -0.012,3.285 -0.064,4.445c-0.049,1.072 -0.229,1.654 -0.379,2.042c-0.2,0.514 -0.438,0.88 -0.823,1.265c-0.385,0.385 -0.751,0.623 -1.265,0.823c-0.388,0.15 -0.97,0.33 -2.042,0.379c-1.16,0.052 -1.508,0.064 -4.445,0.064c-2.938,0 -3.286,-0.012 -4.445,-0.064c-1.073,-0.049 -1.655,-0.229 -2.043,-0.379c-0.513,-0.2 -0.88,-0.438 -1.265,-0.823c-0.385,-0.385 -0.623,-0.751 -0.822,-1.265c-0.151,-0.388 -0.33,-0.97 -0.379,-2.042c-0.053,-1.16 -0.064,-1.508 -0.064,-4.445c0,-2.937 0.011,-3.285 0.064,-4.445c0.049,-1.073 0.228,-1.655 0.379,-2.043c0.199,-0.513 0.437,-0.88 0.822,-1.265c0.385,-0.385 0.752,-0.623 1.265,-0.822c0.388,-0.151 0.97,-0.33 2.043,-0.379c1.16,-0.053 1.508,-0.064 4.445,-0.064Zm0,-1.982c-2.988,0 -3.362,0.012 -4.536,0.066c-1.17,0.053 -1.97,0.239 -2.67,0.511c-0.723,0.281 -1.337,0.657 -1.948,1.269c-0.612,0.611 -0.988,1.225 -1.269,1.948c-0.272,0.7 -0.458,1.5 -0.511,2.67c-0.054,1.174 -0.066,1.548 -0.066,4.536c0,2.987 0.012,3.362 0.066,4.535c0.053,1.171 0.239,1.97 0.511,2.67c0.281,0.723 0.657,1.337 1.269,1.948c0.611,0.612 1.225,0.988 1.948,1.269c0.7,0.272 1.5,0.458 2.67,0.511c1.174,0.054 1.548,0.067 4.536,0.067c2.987,0 3.362,-0.013 4.535,-0.067c1.171,-0.053 1.97,-0.239 2.67,-0.511c0.723,-0.281 1.337,-0.657 1.948,-1.269c0.612,-0.611 0.988,-1.225 1.269,-1.948c0.272,-0.7 0.458,-1.499 0.511,-2.67c0.054,-1.173 0.067,-1.548 0.067,-4.535c0,-2.988 -0.013,-3.362 -0.067,-4.536c-0.053,-1.17 -0.239,-1.97 -0.511,-2.67c-0.281,-0.723 -0.657,-1.337 -1.269,-1.948c-0.611,-0.612 -1.225,-0.988 -1.948,-1.269c-0.7,-0.272 -1.499,-0.458 -2.67,-0.511c-1.173,-0.054 -1.548,-0.066 -4.535,-0.066Z"/><path d="M12.006,6.357c-3.12,0 -5.649,2.529 -5.649,5.649c0,3.119 2.529,5.648 5.649,5.648c3.119,0 5.648,-2.529 5.648,-5.648c0,-3.12 -2.529,-5.649 -5.648,-5.649Zm0,9.315c-2.025,0 -3.667,-1.641 -3.667,-3.666c0,-2.025 1.642,-3.667 3.667,-3.667c2.025,0 3.666,1.642 3.666,3.667c0,2.025 -1.641,3.666 -3.666,3.666Z"/><path d="M19.197,6.134c0,0.729 -0.59,1.32 -1.32,1.32c-0.728,0 -1.32,-0.591 -1.32,-1.32c0,-0.729 0.592,-1.32 1.32,-1.32c0.73,0 1.32,0.591 1.32,1.32Z"/></g></g></svg>