<?xml version="1.0" encoding="UTF-8" standalone="no"?><!DOCTYPE svg PUBLIC "-//W3C//DTD SVG 1.1//EN" "http://www.w3.org/Graphics/SVG/1.1/DTD/svg11.dtd"><svg width="100%" height="100%" viewBox="0 0 24 24" version="1.1" xmlns="http://www.w3.org/2000/svg" xmlns:xlink="http://www.w3.org/1999/xlink" xml:space="preserve" style="fill-rule:evenodd;clip-rule:evenodd;stroke-linejoin:round;stroke-miterlimit:1.41421;"><g id="Export"><path d="M17.309,12.667c-0.254,-0.517 -0.957,-0.946 -1.892,-0.2c-1.263,1.008 -3.292,1.008 -3.292,1.008c0,0 -2.029,0 -3.292,-1.008c-0.934,-0.746 -1.638,-0.317 -1.891,0.2c-0.443,0.901 0.057,1.336 1.186,2.07c0.963,0.627 2.288,0.861 3.143,0.949l-0.714,0.723c-1.005,1.019 -1.976,2.002 -2.65,2.685c-0.402,0.408 -0.402,1.069 0,1.477l0.122,0.123c0.201,0.204 0.464,0.305 0.727,0.306l0.004,0c0.263,-0.001 0.526,-0.103 0.727,-0.306l2.65,-2.685c1.005,1.019 1.976,2.003 2.65,2.685c0.403,0.408 1.055,0.408 1.458,0l0.122,-0.123c0.402,-0.408 0.402,-1.069 0,-1.477l-2.65,-2.685l-0.716,-0.725c0.855,-0.09 2.166,-0.325 3.122,-0.947c1.128,-0.734 1.628,-1.169 1.186,-2.07Zm-5.184,-0.556c2.483,0 4.497,-2.039 4.497,-4.555c0,-2.516 -2.014,-4.556 -4.497,-4.556c-2.484,0 -4.497,2.04 -4.497,4.556c0,2.516 2.013,4.555 4.497,4.555Zm0,-6.797c1.222,0 2.213,1.004 2.213,2.242c0,1.237 -0.991,2.241 -2.213,2.241c-1.222,0 -2.212,-1.004 -2.212,-2.241c0,-1.238 0.99,-2.242 2.212,-2.242Z"/></g><g id="Export1"><path d="M17.309,12.667c-0.254,-0.517 -0.957,-0.946 -1.892,-0.2c-1.263,1.008 -3.292,1.008 -3.292,1.008c0,0 -2.029,0 -3.292,-1.008c-0.934,-0.746 -1.638,-0.317 -1.891,0.2c-0.443,0.901 0.057,1.336 1.186,2.07c0.963,0.627 2.288,0.861 3.143,0.949l-0.714,0.723c-1.005,1.019 -1.976,2.002 -2.65,2.685c-0.402,0.408 -0.402,1.069 0,1.477l0.122,0.123c0.201,0.204 0.464,0.305 0.727,0.306l0.004,0c0.263,-0.001 0.526,-0.103 0.727,-0.306l2.65,-2.685c1.005,1.019 1.976,2.003 2.65,2.685c0.403,0.408 1.055,0.408 1.458,0l0.122,-0.123c0.402,-0.408 0.402,-1.069 0,-1.477l-2.65,-2.685l-0.716,-0.725c0.855,-0.09 2.166,-0.325 3.122,-0.947c1.128,-0.734 1.628,-1.169 1.186,-2.07Zm-5.184,-0.556c2.483,0 4.497,-2.039 4.497,-4.555c0,-2.516 -2.014,-4.556 -4.497,-4.556c-2.484,0 -4.497,2.04 -4.497,4.556c0,2.516 2.013,4.555 4.497,4.555Zm0,-6.797c1.222,0 2.213,1.004 2.213,2.242c0,1.237 -0.991,2.241 -2.213,2.241c-1.222,0 -2.212,-1.004 -2.212,-2.241c0,-1.238 0.99,-2.242 2.212,-2.242Z"/></g></svg>