<?xml version="1.0" encoding="UTF-8" standalone="no"?><!DOCTYPE svg PUBLIC "-//W3C//DTD SVG 1.1//EN" "http://www.w3.org/Graphics/SVG/1.1/DTD/svg11.dtd"><svg width="100%" height="100%" viewBox="0 0 24 24" version="1.1" xmlns="http://www.w3.org/2000/svg" xmlns:xlink="http://www.w3.org/1999/xlink" xml:space="preserve" style="fill-rule:evenodd;clip-rule:evenodd;stroke-linejoin:round;stroke-miterlimit:1.41421;"><g id="Export"><path d="M12.033,1.001c0.12,0.013 0.229,0.063 0.31,0.155c0.029,0.033 0.051,0.07 0.07,0.109l3.141,6.844c2.504,0.292 5.02,0.494 7.511,0.877c0.032,0.007 0.032,0.007 0.064,0.016c0.06,0.024 0.116,0.055 0.163,0.1c0.137,0.128 0.18,0.333 0.108,0.506c-0.026,0.062 -0.065,0.113 -0.112,0.159l-5.538,5.101c0.496,2.472 1.081,4.927 1.487,7.415c0.003,0.033 0.003,0.032 0.004,0.066c-0.004,0.065 -0.016,0.127 -0.044,0.186c-0.08,0.169 -0.262,0.274 -0.449,0.259c-0.066,-0.006 -0.126,-0.027 -0.185,-0.057l-6.563,-3.691c-2.197,1.235 -4.352,2.551 -6.592,3.706c-0.031,0.013 -0.03,0.013 -0.062,0.023c-0.063,0.017 -0.125,0.025 -0.19,0.016c-0.186,-0.024 -0.342,-0.164 -0.385,-0.347c-0.015,-0.064 -0.014,-0.128 -0.003,-0.193l1.482,-7.383c-1.854,-1.708 -3.771,-3.35 -5.562,-5.124c-0.021,-0.025 -0.021,-0.025 -0.041,-0.051c-0.035,-0.055 -0.062,-0.112 -0.074,-0.177c-0.035,-0.184 0.051,-0.375 0.211,-0.473c0.057,-0.034 0.118,-0.052 0.183,-0.062l7.479,-0.872c1.052,-2.291 2.022,-4.622 3.155,-6.873c0.017,-0.029 0.017,-0.028 0.036,-0.055c0.062,-0.076 0.139,-0.134 0.234,-0.162c0.032,-0.01 0.063,-0.014 0.096,-0.018c0.034,-0.001 0.033,-0.001 0.066,0Zm-2.238,8.964l-5.251,0.612l3.888,3.582l-1.04,5.184l4.608,-2.592l4.608,2.592l-1.04,-5.184l3.888,-3.582l-5.251,-0.612l-2.205,-4.805c-0.735,1.602 -1.47,3.203 -2.205,4.805Z" style="fill-rule:nonzero;"/></g><g id="Export1"><path d="M12.033,1.001c0.12,0.013 0.229,0.063 0.31,0.155c0.029,0.033 0.051,0.07 0.07,0.109l3.141,6.844c2.504,0.292 5.02,0.494 7.511,0.877c0.032,0.007 0.032,0.007 0.064,0.016c0.06,0.024 0.116,0.055 0.163,0.1c0.137,0.128 0.18,0.333 0.108,0.506c-0.026,0.062 -0.065,0.113 -0.112,0.159l-5.538,5.101c0.496,2.472 1.081,4.927 1.487,7.415c0.003,0.033 0.003,0.032 0.004,0.066c-0.004,0.065 -0.016,0.127 -0.044,0.186c-0.08,0.169 -0.262,0.274 -0.449,0.259c-0.066,-0.006 -0.126,-0.027 -0.185,-0.057l-6.563,-3.691c-2.197,1.235 -4.352,2.551 -6.592,3.706c-0.031,0.013 -0.03,0.013 -0.062,0.023c-0.063,0.017 -0.125,0.025 -0.19,0.016c-0.186,-0.024 -0.342,-0.164 -0.385,-0.347c-0.015,-0.064 -0.014,-0.128 -0.003,-0.193l1.482,-7.383c-1.854,-1.708 -3.771,-3.35 -5.562,-5.124c-0.021,-0.025 -0.021,-0.025 -0.041,-0.051c-0.035,-0.055 -0.062,-0.112 -0.074,-0.177c-0.035,-0.184 0.051,-0.375 0.211,-0.473c0.057,-0.034 0.118,-0.052 0.183,-0.062l7.479,-0.872c1.052,-2.291 2.022,-4.622 3.155,-6.873c0.017,-0.029 0.017,-0.028 0.036,-0.055c0.062,-0.076 0.139,-0.134 0.234,-0.162c0.032,-0.01 0.063,-0.014 0.096,-0.018c0.034,-0.001 0.033,-0.001 0.066,0Zm-2.238,8.964l-5.251,0.612l3.888,3.582l-1.04,5.184l4.608,-2.592l4.608,2.592l-1.04,-5.184l3.888,-3.582l-5.251,-0.612l-2.205,-4.805c-0.735,1.602 -1.47,3.203 -2.205,4.805Z" style="fill-rule:nonzero;"/></g></svg>