<?xml version="1.0" encoding="UTF-8" standalone="no"?><!DOCTYPE svg PUBLIC "-//W3C//DTD SVG 1.1//EN" "http://www.w3.org/Graphics/SVG/1.1/DTD/svg11.dtd"><svg width="100%" height="100%" viewBox="0 0 24 24" version="1.1" xmlns="http://www.w3.org/2000/svg" xmlns:xlink="http://www.w3.org/1999/xlink" xml:space="preserve" style="fill-rule:evenodd;clip-rule:evenodd;stroke-linejoin:round;stroke-miterlimit:1.41421;"><g id="Export"><path d="M11.587,1.265c0.074,-0.161 0.235,-0.265 0.413,-0.265c0.178,0 0.339,0.104 0.413,0.265l3.141,6.844l7.479,0.872c0.176,0.02 0.325,0.142 0.38,0.311c0.055,0.169 0.006,0.355 -0.125,0.475l-5.538,5.101l1.482,7.383c0.035,0.174 -0.035,0.353 -0.179,0.457c-0.143,0.105 -0.335,0.116 -0.49,0.029l-6.563,-3.691l-6.563,3.691c-0.155,0.087 -0.347,0.076 -0.49,-0.029c-0.144,-0.104 -0.214,-0.283 -0.179,-0.457l1.482,-7.383l-5.538,-5.101c-0.131,-0.12 -0.18,-0.306 -0.125,-0.475c0.055,-0.169 0.204,-0.291 0.38,-0.311l7.479,-0.872l3.141,-6.844Z"/></g><g id="Export1"><path d="M11.587,1.265c0.074,-0.161 0.235,-0.265 0.413,-0.265c0.178,0 0.339,0.104 0.413,0.265l3.141,6.844l7.479,0.872c0.176,0.02 0.325,0.142 0.38,0.311c0.055,0.169 0.006,0.355 -0.125,0.475l-5.538,5.101l1.482,7.383c0.035,0.174 -0.035,0.353 -0.179,0.457c-0.143,0.105 -0.335,0.116 -0.49,0.029l-6.563,-3.691l-6.563,3.691c-0.155,0.087 -0.347,0.076 -0.49,-0.029c-0.144,-0.104 -0.214,-0.283 -0.179,-0.457l1.482,-7.383l-5.538,-5.101c-0.131,-0.12 -0.18,-0.306 -0.125,-0.475c0.055,-0.169 0.204,-0.291 0.38,-0.311l7.479,-0.872l3.141,-6.844Z"/></g></svg>